<svg xmlns="http://www.w3.org/2000/svg" width="48" height="48" viewBox="0 0 48 48">
    <g fill="none" fill-rule="evenodd">
        <circle cx="24" cy="24" r="24" fill="#F5F5F5"/>
        <g fill="#0FA0DA" fill-rule="nonzero">
            <path d="M15.646 29.34c-1.61 0-2.914 1.254-2.914 2.8 0 1.548 1.304 2.8 2.914 2.8s2.915-1.252 2.915-2.8c0-1.546-1.304-2.8-2.915-2.8zm0 4.018c-.7 0-1.267-.545-1.267-1.218 0-.672.568-1.217 1.267-1.217.7 0 1.268.545 1.268 1.217 0 .673-.568 1.218-1.268 1.218zM31.015 29.34c-1.61 0-2.914 1.254-2.914 2.8 0 1.548 1.304 2.8 2.914 2.8s2.915-1.252 2.915-2.8c0-1.546-1.304-2.8-2.915-2.8zm0 4.018c-.7 0-1.267-.545-1.267-1.218 0-.672.567-1.217 1.267-1.217s1.268.545 1.268 1.217c0 .673-.568 1.218-1.268 1.218zM9.87 26.015h13.438c.48 0 .87-.377.87-.837v-4.979c0-.46-.39-.836-.87-.836H9.871c-.48 0-.871.376-.871.836v4.979c0 .46.392.837.87.837zM19.337 18.84h3.954c.479 0 .87-.376.87-.836v-3.085c0-.46-.391-.836-.87-.836h-3.954c-.479 0-.87.376-.87.836v3.085c0 .46.391.836.87.836zM9.87 18.84h7.157c.48 0 .871-.376.871-.836v-1.731c0-.46-.392-.837-.87-.837H9.87c-.48 0-.871.377-.871.837v1.73c0 .46.392.837.87.837z"/>
            <path d="M36.726 24.913c-1.068-.267-1.68-.434-2.1-1.213l-1.403-2.73c-.42-.779-1.51-1.416-2.422-1.416h-2.7v-.774c0-.46-.392-.837-.871-.837h-1.637c-.478 0-.87.377-.87.837v7.273c-.174.337-.535.57-.95.57H13.438c-.025 0-.056.002-.092.004h-1.7v-.003h-.706c-.042-.006-1.132-.002-1.132-.002-.479 0-.808.368-.808.828v4.023c0 .46.392.837.87.837h1.983a3.515 3.515 0 0 1-.004-.17c0-2.011 1.703-3.648 3.797-3.648 2.095 0 3.798 1.637 3.798 3.649 0 .056-.001.113-.004.169h7.504c.095 0 .187-.009.277-.023a3.696 3.696 0 0 1-.004-.146c0-2.012 1.704-3.65 3.798-3.65 2.095 0 3.799 1.638 3.799 3.65 0 .056-.002.113-.005.169h3.468c.913 0 1.66-.718 1.66-1.595v-3.03c0-2.55-2.323-2.55-3.21-2.772zm-8.625-.142v-4.108h2.11c.812 0 1.782.567 2.156 1.26l1.248 2.428c.091.17.193.307.309.42H28.1z"/>
        </g>
    </g>
</svg>
