<svg xmlns="http://www.w3.org/2000/svg" width="48" height="48" viewBox="0 0 48 48">
    <g fill="none" fill-rule="evenodd">
        <circle cx="24" cy="24" r="24" fill="#F5F5F5"/>
        <path fill="#CF0974" fill-rule="nonzero" d="M31.702 19.398a5.374 5.374 0 0 1-1.51-3.763v-.157h.884c.489 0 .885-.408.885-.913v-3.652c0-.504-.396-.913-.885-.913H20.462c-1.463 0-2.654 1.229-2.654 2.74a2.73 2.73 0 0 0 1.77 2.57v2.557c-2.278 2.492-3.539 5.727-3.539 9.168v8.226c0 1.51 1.19 2.739 2.654 2.739h8.845c1.463 0 2.654-1.229 2.654-2.74v-.912H24c-.488 0-.885-.409-.885-.913v-9.74c0-.504.397-.912.885-.912h5.513a13.407 13.407 0 0 0-2.86-4.927v-2.378h1.77v.157c0 1.91.72 3.704 2.028 5.054a.865.865 0 0 0 1.25 0 .934.934 0 0 0 0-1.291zm-6.817-2.094h-3.539v-1.826h3.539v1.826zm3.538-5.478h1.769v1.826h-1.77v-1.826z"/>
        <path fill="#CF0974" fill-rule="nonzero" d="M29.972 24.609h-5.087v7.913h5.307v-5.487c0-.824-.08-1.633-.22-2.426z"/>
    </g>
</svg>
