<svg xmlns="http://www.w3.org/2000/svg" width="48" height="48" viewBox="0 0 48 48">
    <g fill="none" fill-rule="evenodd">
        <circle cx="24" cy="24" r="24" fill="#F5F5F5"/>
        <g fill="#CF0974" fill-rule="nonzero">
            <path d="M34.5 30.5h-21A1.5 1.5 0 0 0 12 32v1.5a1.5 1.5 0 0 0 1.5 1.5H15a1.5 1.5 0 0 0 1.5-1.5h5.25a1.5 1.5 0 0 0 1.5 1.5h1.5a1.5 1.5 0 0 0 1.5-1.5h5.25A1.5 1.5 0 0 0 33 35h1.5a1.5 1.5 0 0 0 1.5-1.5V32a1.5 1.5 0 0 0-1.5-1.5zM33.75 27.5v-12a1.5 1.5 0 0 0-1.5-1.5h-16.5a1.5 1.5 0 0 0-1.5 1.5v12a1.5 1.5 0 0 0 1.5 1.5h16.5a1.5 1.5 0 0 0 1.5-1.5zM17.11 16.016h2.25a.75.75 0 0 1 0 1.5h-2.25a.75.75 0 0 1 0-1.5zm0 3h2.25a.75.75 0 0 1 0 1.5h-2.25a.75.75 0 0 1 0-1.5zM28.124 24.5h-.75a.75.75 0 0 1-.624-1.166l1.5-2.25c.278-.417.97-.417 1.248 0l1.5 2.25a.75.75 0 0 1-.624 1.166h-.75V26a.75.75 0 0 1-1.5 0v-1.5z"/>
        </g>
    </g>
</svg>
