<svg xmlns="http://www.w3.org/2000/svg" width="48" height="48" viewBox="0 0 48 48">
    <g fill="none" fill-rule="evenodd">
        <circle cx="24" cy="24" r="24" fill="#F5F5F5"/>
        <g fill-rule="nonzero">
            <path fill="#0FA0DA" d="M28.528 13h-9.443a7.09 7.09 0 0 0-7.082 7.082v5.508a7.09 7.09 0 0 0 7.082 7.082h.7c2.742 0 5.32 1.068 7.258 3.006l.738.739a.67.67 0 0 0 1.14-.473v-3.283c3.723-.205 6.688-3.298 6.688-7.071v-5.508c0-3.905-3.177-7.082-7.081-7.082z"/>
            <path fill="#F5F5F5" d="M23.77 16.934c2.134 0 4.235.983 4.235 3.334 0 2.168-2.484 3.002-3.018 3.785-.4.583-.267 1.401-1.367 1.401-.717 0-1.067-.583-1.067-1.116 0-1.985 2.917-2.435 2.917-4.07 0-.9-.599-1.433-1.6-1.433-2.134 0-1.3 2.2-2.917 2.2-.583 0-1.084-.35-1.084-1.016 0-1.636 1.866-3.085 3.9-3.085zm-.083 9.603c.749 0 1.367.616 1.367 1.367 0 .752-.617 1.368-1.367 1.368s-1.368-.615-1.368-1.368c0-.75.618-1.367 1.368-1.367z"/>
        </g>
    </g>
</svg>
