<svg xmlns="http://www.w3.org/2000/svg" width="48" height="48" viewBox="0 0 48 48">
    <g fill="none" fill-rule="evenodd">
        <circle cx="24" cy="24" r="24" fill="#F5F5F5"/>
        <g fill="#CF0974" fill-rule="nonzero">
            <path d="M33.221 19.273h-2.733v-7.555a.708.708 0 0 0-.697-.718H18.21a.708.708 0 0 0-.697.718v7.555h-2.733c-1.508 0-2.735 1.264-2.735 2.818v5.416h23.912v-5.416c0-1.554-1.227-2.818-2.735-2.818zm-15.943 6.6a.708.708 0 0 1-.697.719.708.708 0 0 1-.697-.718v-.948c0-.396.312-.718.697-.718.385 0 .697.322.697.718v.948zm2.259 0a.708.708 0 0 1-.697.719.708.708 0 0 1-.697-.718v-.948c0-.396.312-.718.697-.718.385 0 .697.322.697.718v.948zm8.015-7.901h-7.104a.708.708 0 0 1-.697-.719c0-.396.312-.718.697-.718h7.104c.385 0 .697.322.697.718a.708.708 0 0 1-.697.719zm0-2.324h-7.104a.708.708 0 0 1-.697-.719c0-.396.312-.718.697-.718h7.104c.385 0 .697.322.697.718a.708.708 0 0 1-.697.719zm5.321 10.47h-.92a.708.708 0 0 1-.696-.718c0-.397.312-.718.697-.718h.919c.385 0 .697.321.697.718a.708.708 0 0 1-.697.718zM12.044 29.09v.372c0 .879.694 1.594 1.546 1.594h1.007v1.44c0 1.148.907 2.083 2.021 2.083h14.265c.46 0 .833.385.833.86v.792c0 .397.312.718.697.718a.708.708 0 0 0 .697-.718v-.793c0-1.266-1-2.295-2.227-2.295H16.618a.638.638 0 0 1-.627-.647v-1.44H34.41c.852 0 1.546-.715 1.546-1.594v-.372H12.044z"/>
        </g>
    </g>
</svg>
