<svg xmlns="http://www.w3.org/2000/svg" width="48" height="48" viewBox="0 0 48 48">
    <g fill="none" fill-rule="evenodd">
        <circle cx="24" cy="24" r="24" fill="#F5F5F5"/>
        <g fill-rule="nonzero">
            <path fill="#0FA0DA" d="M36 16.136V33.91A2.09 2.09 0 0 1 33.91 36H17.181a2.09 2.09 0 0 1-2.091-2.09v-6.274a.523.523 0 0 0-.153-.37l-1.632-1.63a1.046 1.046 0 0 1-.306-.74v-4.578a2.09 2.09 0 0 1 2.09-2.09h.1v-2.092c0-1.154.981-2.09 2.191-2.09H33.81c1.21 0 2.19.936 2.19 2.09z"/>
            <path fill="#0FA0DA" d="M17.381 13H33.81c1.21 0 2.19.936 2.19 2.09v2.092H15.19V15.09c0-1.155.981-2.091 2.191-2.091z"/>
            <path fill="#F5F5F5" d="M30.524 31.818h-9.857c-.605 0-1.096-.468-1.096-1.045v-7.318c0-.578.49-1.046 1.096-1.046h9.857c.605 0 1.095.468 1.095 1.046v7.318c0 .577-.49 1.045-1.095 1.045z"/>
            <path fill="#0FA0DA" d="M30.524 27.114v3.136a.536.536 0 0 1-.548.523h-8.762a.536.536 0 0 1-.547-.523v-3.136c0-.289.245-.523.547-.523h8.762c.303 0 .548.234.548.523zM30.524 23.977a.536.536 0 0 1-.548.523h-4.38a.536.536 0 0 1-.548-.523c0-.288.245-.522.547-.522h4.381c.303 0 .548.234.548.522zM22.857 24.5c0 .577-.49 1.045-1.095 1.045s-1.095-.468-1.095-1.045.49-1.045 1.095-1.045 1.095.468 1.095 1.045z"/>
        </g>
        <path fill="#F5F5F5" d="M15 17.182h21v1.045H15z"/>
    </g>
</svg>
