<svg xmlns="http://www.w3.org/2000/svg" width="39" height="51" viewBox="0 0 39 51">
    <g fill="none" fill-rule="evenodd">
        <path fill="#323232" fill-rule="nonzero" d="M37.926 0H1.074C.481 0 0 .48 0 1.072v48.856C0 50.52.48 51 1.074 51h36.852c.593 0 1.074-.48 1.074-1.072V1.072C39 .48 38.52 0 37.926 0z"/>
        <g transform="translate(4 6)">
            <rect width="30" height="4" fill="#CF0974" rx="2"/>
            <rect width="23" height="4" y="6" fill="#FFDF00" rx="2"/>
            <rect width="17" height="4" y="12" fill="#0FA0DA" rx="2"/>
        </g>
        <g fill-rule="nonzero" transform="translate(16 25)">
            <path fill="#FFF" d="M15 6.372c0-.746-.3-1.415-.775-1.879-.25-.244-.476-.498-.46-.653.01-.092.015-.186.015-.28 0-1.402-1.053-2.537-2.353-2.537-.16 0-.317.017-.469.05-.255.056-.584-.109-.828-.362A2.254 2.254 0 0 0 8.5 0c-.634 0-1.208.271-1.63.711-.243.253-.573.418-.828.362a2.193 2.193 0 0 0-.47-.05c-1.299 0-2.352 1.135-2.352 2.536 0 .135.01.268.029.397.032.217-.17.511-.427.749A2.61 2.61 0 0 0 2 6.628c0 .746.3 1.415.775 1.879.25.244.476.498.46.653-.01.092-.015.186-.015.28 0 1.402 1.053 2.537 2.353 2.537.16 0 .317-.017.469-.05.255-.056.584.109.828.362.422.44.996.711 1.63.711.672 0 1.279-.304 1.707-.792.233-.264.584-.39.893-.306.183.049.374.075.57.075 1.3 0 2.354-1.135 2.354-2.536 0-.157-.014-.31-.04-.459-.043-.25.127-.595.36-.857A2.625 2.625 0 0 0 15 6.372zM8.58 9.803c-1.703 0-3.083-1.507-3.083-3.367 0-1.859 1.38-3.366 3.083-3.366 1.703 0 3.083 1.507 3.083 3.366 0 1.86-1.38 3.367-3.083 3.367z"/>
            <path fill="#FFF" d="M.584 17.042l1.835.167c.518.048 1.192.409 1.504.807l1.344 1.712c.312.398.742.354.96-.098.577-1.204 1.666-3.341 2.252-4.603.56 1.268 1.715 3.396 2.295 4.603.217.452.647.496.96.098l1.343-1.712c.312-.399.986-.76 1.504-.807l1.835-.167c.519-.047.732-.437.476-.87l-2.256-3.818c-.256-.433-.664-.418-1.057-.091-.367.304-.734.8-1.55.93-.688.073-1.12-.31-1.863.416-.35.34-.86.531-1.353.574-.013 0-.093.007-.104.01-.108.008-.2 0-.297.004-.5-.003-1.153.007-1.65-.494-.847-.852-1.162-.452-1.85-.525-.816-.13-1.256-.523-1.492-.915-.23-.384-.801-.342-1.057.09l-2.255 3.82c-.256.432-.043.822.476.87z"/>
            <circle cx="8.5" cy="6.5" r="2.5" fill="#323232"/>
        </g>
    </g>
</svg>
