<svg xmlns="http://www.w3.org/2000/svg" width="63" height="67" viewBox="0 0 63 67">
    <g fill="none" fill-rule="nonzero">
        <path fill="#323232" d="M12.423 0h39.042v18.513H12.423z"/>
        <g fill="#FFF">
            <path d="M21.922 5.41c-.829 0-1.501.695-1.501 1.551V18.39h3.003V6.961c0-.856-.672-1.55-1.502-1.55zM31.5 5.41c-.83 0-1.502.695-1.502 1.551V18.39h3.004V6.961c0-.856-.673-1.55-1.502-1.55zM41.077 5.41c-.829 0-1.501.695-1.501 1.551V18.39h3.003V6.961c0-.856-.672-1.55-1.502-1.55z"/>
        </g>
        <path fill="#323232" d="M58.55 14.987H4.45C1.991 14.987 0 16.949 0 19.37v26.472h63V19.37c0-2.42-1.992-4.383-4.45-4.383z"/>
        <g fill="#FFF" transform="translate(47.915 21.158)">
            <ellipse cx="8.124" cy="1.801" rx="1.609" ry="1.671"/>
            <ellipse cx="1.689" cy="1.801" rx="1.609" ry="1.671"/>
        </g>
        <path fill="#323232" d="M51.465 67H12.423V37.113l19.52-4.495 19.522 4.495z"/>
        <path fill="#FFDF00" d="M42.794 60.784H19.318c-.812 0-1.47-.656-1.47-1.464 0-.808.658-1.464 1.47-1.464h23.476c.812 0 1.47.656 1.47 1.464 0 .808-.658 1.464-1.47 1.464z"/>
        <path fill="#CF0974" d="M42.794 53.484H19.318c-.812 0-1.47-.656-1.47-1.464 0-.809.658-1.464 1.47-1.464h23.476c.812 0 1.47.655 1.47 1.464 0 .808-.658 1.464-1.47 1.464z"/>
        <path fill="#0FA0DA" d="M42.794 46.183H31.056c-.812 0-1.47-.655-1.47-1.463 0-.809.658-1.464 1.47-1.464h11.738c.812 0 1.47.655 1.47 1.464 0 .808-.658 1.463-1.47 1.463z"/>
        <path fill="#FFF" d="M46.904 29.974h-29.92c-2.52 0-4.561 1.835-4.561 4.1v2.952h39.042v-2.952c0-2.265-2.042-4.1-4.561-4.1z"/>
    </g>
</svg>
