<svg xmlns="http://www.w3.org/2000/svg" xmlns:xlink="http://www.w3.org/1999/xlink" width="100" height="100" viewBox="0 0 100 100">
    <defs>
        <circle id="a" cx="50" cy="50" r="50"/>
    </defs>
    <g fill="none" fill-rule="evenodd">
        <g>
            <use fill="#FFF" xlink:href="#a"/>
            <circle cx="50" cy="50" r="49.5" stroke="#CCC"/>
        </g>
        <path fill="#323232" fill-rule="nonzero" d="M50.5 41.254c-11.122 0-20.763 6.45-25.5 15.873C29.737 66.55 39.378 73 50.5 73S71.262 66.55 76 57.127c-4.737-9.423-14.378-15.873-25.5-15.873zm12.573 8.418a24.201 24.201 0 0 1 7.443 7.455 24.202 24.202 0 0 1-7.443 7.455A23.411 23.411 0 0 1 50.5 68.238c-4.46 0-8.808-1.264-12.573-3.656a24.205 24.205 0 0 1-7.443-7.455 24.2 24.2 0 0 1 8.033-7.817 12.62 12.62 0 0 0-.767 4.345c0 7.013 5.708 12.698 12.75 12.698 7.041 0 12.75-5.685 12.75-12.698 0-1.527-.271-2.99-.767-4.345.198.118.395.238.59.362zM50.5 52.067c0 2.63-2.14 4.762-4.781 4.762-2.64 0-4.782-2.132-4.782-4.762 0-2.63 2.141-4.761 4.782-4.761 2.64 0 4.781 2.131 4.781 4.761z"/>
        <g transform="translate(28 27)">
            <rect width="10" height="4" x="18" y="3" fill="#FFDF00" rx="2" transform="rotate(90 23 5)"/>
            <rect width="10" height="4" y="7" fill="#CF0974" rx="2" transform="rotate(60 5 9)"/>
            <rect width="10" height="4" x="36" y="7" fill="#0FA0DA" rx="2" transform="rotate(120 41 9)"/>
        </g>
    </g>
</svg>
