<svg xmlns="http://www.w3.org/2000/svg" width="17" height="16" viewBox="0 0 17 16">
    <path fill="#323232" fill-rule="nonzero" d="M8.5 16a.573.573 0 0 1-.422-.185L1.284 8.438l-.005-.006C.454 7.512 0 6.293 0 5c0-1.294.454-2.513 1.279-3.433l.103-.115C2.222.516 3.342 0 4.538 0c1.196 0 2.317.516 3.157 1.452l.805.898.805-.898C10.145.516 11.265 0 12.462 0c1.195 0 2.316.516 3.156 1.452l.103.115C16.546 2.487 17 3.706 17 5c0 1.293-.454 2.512-1.279 3.432a.21.21 0 0 1-.005.006l-6.794 7.377A.574.574 0 0 1 8.5 16zM2.13 7.653l6.37 6.916 6.37-6.916c1.31-1.465 1.31-3.846-.003-5.31l-.103-.114c-.618-.69-1.436-1.07-2.302-1.07-.867 0-1.685.38-2.303 1.07L8.927 3.603a.573.573 0 0 1-.854 0L6.841 2.229c-.618-.69-1.436-1.07-2.303-1.07-.866 0-1.684.38-2.302 1.07l-.103.115C.82 3.807.819 6.188 2.13 7.653z"/>
</svg>
