<svg xmlns="http://www.w3.org/2000/svg" width="42" height="15" viewBox="0 0 42 15">
    <g fill="none" fill-rule="nonzero">
        <path fill="#CF0974" d="M19.196 6.603h-.001a4.566 4.566 0 0 0-.274-.372C16.521 2.906 15.75 0 15.75 0s-.77 2.907-3.171 6.231a4.774 4.774 0 0 0-.274.371v.001a5.213 5.213 0 0 0-.85 2.885c0 2.667 1.923 4.83 4.295 4.83s4.295-2.163 4.295-4.83c.001-1.081-.315-2.08-.85-2.885zm-.413 4.5c-.239.683-1.35.39-1.109-.299.446-1.272.293-2.456-.619-3.488-.483-.547.328-1.348.814-.797 1.172 1.328 1.498 2.918.914 4.584z"/>
        <path fill="#FFDF00" d="M30.65 6.603a4.566 4.566 0 0 0-.274-.372C27.975 2.906 27.205 0 27.205 0s-.77 2.907-3.172 6.231a4.774 4.774 0 0 0-.273.371v.001a5.213 5.213 0 0 0-.85 2.885c0 2.667 1.922 4.83 4.295 4.83 2.372 0 4.295-2.163 4.295-4.83 0-1.081-.316-2.08-.85-2.885zm-.412 4.5c-.24.683-1.35.39-1.11-.299.447-1.272.294-2.456-.618-3.488-.483-.547.327-1.348.813-.797 1.173 1.328 1.499 2.918.915 4.584z"/>
        <path fill="#575757" d="M41.15 6.603a4.566 4.566 0 0 0-.274-.372C38.475 2.906 37.705 0 37.705 0s-.77 2.907-3.172 6.231a4.774 4.774 0 0 0-.273.371v.001a5.213 5.213 0 0 0-.85 2.885c0 2.667 1.922 4.83 4.295 4.83 2.372 0 4.295-2.163 4.295-4.83 0-1.081-.316-2.08-.85-2.885zm-.412 4.5c-.24.683-1.35.39-1.11-.299.447-1.272.294-2.456-.618-3.488-.483-.547.327-1.348.813-.797 1.173 1.328 1.499 2.918.915 4.584z"/>
        <path fill="#0FA0DA" d="M7.741 6.603a4.566 4.566 0 0 0-.274-.372C5.066 2.906 4.295 0 4.295 0s-.77 2.907-3.17 6.231a4.774 4.774 0 0 0-.274.371l-.001.001A5.213 5.213 0 0 0 0 9.488c0 2.667 1.923 4.83 4.295 4.83 2.373 0 4.296-2.163 4.296-4.83 0-1.081-.316-2.08-.85-2.885zm-.412 4.5c-.24.683-1.35.39-1.11-.299.447-1.272.293-2.456-.618-3.488-.483-.547.327-1.348.813-.797 1.173 1.328 1.499 2.918.915 4.584z"/>
    </g>
</svg>
