<svg xmlns="http://www.w3.org/2000/svg" width="26" height="46" viewBox="0 0 26 46">
    <g fill="none" fill-rule="evenodd">
        <g fill-rule="nonzero">
            <path fill="#323232" d="M0 25.103v20.621h26v-20.62H0zm16.366 14.695H9.634l.38-4.36a3.618 3.618 0 0 1-.64-2.065A3.636 3.636 0 0 1 13 29.737c2 0 3.626 1.631 3.626 3.636 0 .747-.224 1.461-.64 2.064l.38 4.36zM3.586 19.416v3.894h4.726v-3.716c0-1.612.992-3.012 2.447-3.72V10.76c-4.112.928-7.173 4.452-7.173 8.657zM15.241 10.759v5.116c1.455.707 2.447 2.107 2.447 3.72v3.715h4.726v-3.894c0-4.205-3.06-7.729-7.173-8.657z"/>
            <path fill="#FFDF00" d="M11.655 3.586h2.69v3.586h-2.69z"/>
        </g>
        <rect width="8.069" height="3.586" x="17.034" y="3.586" fill="#0FA0DA" rx="1.793" transform="rotate(-45 21.069 5.38)"/>
        <rect width="8.069" height="3.586" x="1.793" y="3.586" fill="#CF0974" rx="1.793" transform="rotate(-135 5.828 5.38)"/>
        <rect width="3.586" height="8.069" x="11.655" fill="#FFDF00" rx="1.793"/>
    </g>
</svg>
