<svg xmlns="http://www.w3.org/2000/svg" xmlns:xlink="http://www.w3.org/1999/xlink" width="100" height="100" viewBox="0 0 100 100">
    <defs>
        <circle id="a" cx="50" cy="50" r="50"/>
    </defs>
    <g fill="none" fill-rule="evenodd">
        <g>
            <use fill="#FFF" xlink:href="#a"/>
            <circle cx="50" cy="50" r="49.5" stroke="#CCC"/>
        </g>
        <g fill="#323232" fill-rule="nonzero">
            <path d="M53.818 26H34.182C29.67 26 26 29.67 26 34.182v26.182c0 1.574 2.008 2.232 2.946.981l6.385-8.513c.134-.178.302-.316.487-.423v-4.59c0-6.317 5.138-11.455 11.455-11.455H62v-2.182C62 29.67 58.33 26 53.818 26z"/>
            <path d="M66.818 39H47.182C42.67 39 39 42.67 39 47.181V57c0 4.512 3.67 8.182 8.182 8.182h17.182c.52 0 .995.237 1.305.65l6.385 8.513C72.997 75.6 75 74.93 75 73.362v-26.18C75 42.67 71.33 39 66.818 39zM50.455 53.726a1.636 1.636 0 1 1 0-3.272 1.636 1.636 0 0 1 0 3.272zm6.545 0a1.636 1.636 0 1 1 0-3.272 1.636 1.636 0 0 1 0 3.272zm6.545 0a1.636 1.636 0 1 1 0-3.272 1.636 1.636 0 0 1 0 3.272z"/>
        </g>
        <g transform="translate(48 50)">
            <circle cx="2.5" cy="2.5" r="2.5" fill="#CF0974"/>
            <circle cx="9.5" cy="2.5" r="2.5" fill="#FFDF00"/>
            <circle cx="16.5" cy="2.5" r="2.5" fill="#0FA0DA"/>
        </g>
    </g>
</svg>
