<svg xmlns="http://www.w3.org/2000/svg" width="19" height="23" viewBox="0 0 19 23">
    <path fill="#989494" fill-rule="nonzero" d="M16.005 2.307C14.421.819 12.229 0 9.832 0 6.172 0 3.92 1.468 2.676 2.699 1.143 4.216.263 6.23.263 8.227c0 2.505 1.072 4.428 2.866 5.144.12.048.242.072.36.072.38 0 .68-.242.783-.63.06-.223.201-.773.262-1.012.13-.472.025-.699-.26-1.027-.519-.6-.76-1.31-.76-2.235 0-2.746 2.09-5.664 5.964-5.664 3.073 0 4.983 1.71 4.983 4.46 0 1.736-.382 3.343-1.077 4.526-.482.823-1.33 1.803-2.633 1.803-.563 0-1.07-.227-1.388-.621-.302-.373-.401-.855-.28-1.357.137-.567.324-1.16.505-1.731.33-1.045.641-2.032.641-2.82 0-1.346-.846-2.25-2.106-2.25-1.6 0-2.855 1.59-2.855 3.62 0 .996.27 1.74.393 2.026l-1.627 6.742c-.132.547-.924 4.867.387 5.211 1.473.387 2.789-3.82 2.923-4.296.108-.386.488-1.848.721-2.747.711.67 1.856 1.122 2.97 1.122 2.1 0 3.988-.924 5.317-2.602 1.289-1.627 1.999-3.896 1.999-6.387 0-1.947-.855-3.867-2.346-5.267z"/>
</svg>
