<svg xmlns="http://www.w3.org/2000/svg" width="58" height="59" viewBox="0 0 58 59">
    <g fill="none" fill-rule="evenodd">
        <path fill="#FBAA19" fill-rule="nonzero" d="M57.148 32.764l-.895-1.217a3.84 3.84 0 0 1-.036-4.473l.87-1.23a3.832 3.832 0 0 0-1.328-5.6l-1.337-.717a3.833 3.833 0 0 1-1.97-4.024l.25-1.492a3.843 3.843 0 0 0-3.624-4.473l-1.504-.06a3.828 3.828 0 0 1-3.52-2.77l-.417-1.45a3.842 3.842 0 0 0-5.201-2.477l-1.385.597a3.836 3.836 0 0 1-4.379-.967L31.67 1.289a3.84 3.84 0 0 0-5.764.036l-.99 1.134a3.831 3.831 0 0 1-4.35 1.027l-1.4-.577a3.834 3.834 0 0 0-5.168 2.539l-.394 1.45a3.837 3.837 0 0 1-3.484 2.829l-1.504.083a3.838 3.838 0 0 0-3.556 4.525l.275 1.481a3.843 3.843 0 0 1-1.91 4.048l-1.329.726a3.844 3.844 0 0 0-1.237 5.626l.895 1.218a3.84 3.84 0 0 1 .037 4.473l-.873 1.235a3.832 3.832 0 0 0 1.33 5.6l1.336.717a3.833 3.833 0 0 1 1.97 4.023l-.256 1.493a3.843 3.843 0 0 0 3.625 4.474l1.503.059a3.828 3.828 0 0 1 3.52 2.77l.418 1.45a3.842 3.842 0 0 0 5.212 2.47l1.385-.598a3.836 3.836 0 0 1 4.379.967l1.003 1.122a3.834 3.834 0 0 0 5.751-.047l.991-1.134a3.831 3.831 0 0 1 4.35-1.026l1.396.573a3.834 3.834 0 0 0 5.167-2.54l.394-1.45a3.837 3.837 0 0 1 3.484-2.818l1.504-.084a3.838 3.838 0 0 0 3.556-4.525l-.275-1.481a3.843 3.843 0 0 1 1.91-4.048l1.329-.725a3.824 3.824 0 0 0 1.25-5.62z"/>
        <path fill="#FFF" fill-rule="nonzero" d="M11.438 25.892l-.431-.725a1.897 1.897 0 0 0 1.276-1.06c.133-.286.17-.528.11-.725a.646.646 0 0 0-.356-.422.512.512 0 0 0-.453 0 1.35 1.35 0 0 0-.437.349l-.453.524c-.155.18-.323.35-.502.507-.174.15-.388.247-.616.28a1.3 1.3 0 0 1-.758-.122 1.37 1.37 0 0 1-.77-.877c-.123-.403-.077-.838.138-1.304.303-.653.764-1.085 1.384-1.296l.41.695c-.5.156-.906.522-1.114 1.001a.898.898 0 0 0-.084.605c.04.174.16.32.324.392a.41.41 0 0 0 .363-.011c.137-.069.26-.163.362-.278l.38-.413.422-.46c.133-.146.285-.273.453-.376.17-.1.363-.154.56-.157.231-.005.46.046.668.148.389.168.688.493.824.894.142.403.087.877-.164 1.423-.335.72-.847 1.19-1.536 1.408zM13.573 22.812l-2.934-4.549.626-.83 5.178 1.572-.57.755-.992-.313-1.311 1.737.572.872-.569.756zm-.49-2.287l1.03-1.367-2.449-.772 1.419 2.14zM13.268 16.21l-.523-.585 2.77-2.47.522.584-1.072.957 2.858 3.205-.622.556-2.858-3.205zM19.373 16.717l-2.76-4.264.701-.454 2.76 4.265zM20.166 15.27l.155-.826c.514.271 1.125.29 1.656.053.29-.126.479-.284.566-.474a.646.646 0 0 0 .014-.55.512.512 0 0 0-.342-.298 1.349 1.349 0 0 0-.558-.03l-.686.093a5.095 5.095 0 0 1-.71.047 1.2 1.2 0 0 1-.649-.2 1.302 1.302 0 0 1-.483-.597 1.37 1.37 0 0 1 0-1.168c.176-.384.498-.68.967-.885.659-.289 1.29-.306 1.894-.053l-.153.792a1.798 1.798 0 0 0-1.497.012.897.897 0 0 0-.462.396.565.565 0 0 0-.017.51.41.41 0 0 0 .28.233c.15.04.304.05.456.032l.557-.056.618-.063c.196-.022.394-.016.588.018.193.038.374.126.523.254.176.15.314.34.402.555a1.5 1.5 0 0 1 .025 1.215c-.161.398-.516.717-1.066.956-.725.315-1.418.326-2.078.034zM24.342 14.311l-.957-4.99 3.198-.616.148.77-2.377.456.242 1.285 2.33-.447.147.77-2.33.447.415 2.163zM27.188 13.656l2.036-5.015 1.039.035 1.691 5.14-.945-.032-.315-.993-2.175-.072-.384.967-.948-.03zm1.587-1.715l1.71.057-.768-2.447-.942 2.39zM32.504 13.378c-.314-.6-.364-1.273-.148-2.017.215-.744.615-1.285 1.2-1.625a2.345 2.345 0 0 1 1.905-.213c.806.233 1.31.771 1.513 1.617l-.788.184a1.439 1.439 0 0 0-.334-.654 1.269 1.269 0 0 0-.604-.392 1.505 1.505 0 0 0-1.27.174 1.91 1.91 0 0 0-.815 1.142c-.15.46-.122.96.08 1.398.187.41.546.714.98.83.238.068.49.064.726-.01.238-.07.454-.197.63-.371l.58.564c-.65.606-1.368.796-2.153.57a2.347 2.347 0 0 1-1.502-1.197zM37.996 11.344l.39-.68 3.22 1.847-.391.68-1.246-.714-2.136 3.724-.725-.416 2.136-3.726zM39.441 17.302l3.18-3.962.65.523-3.178 3.963zM41.55 18.17c.08-.664.41-1.245.988-1.744.579-.5 1.201-.741 1.868-.726a2.405 2.405 0 0 1 2.27 2.631c-.081.663-.41 1.244-.989 1.744-.578.5-1.201.741-1.868.725a2.405 2.405 0 0 1-2.27-2.63zm2.816-1.651a2.248 2.248 0 0 0-2.002 1.737 1.51 1.51 0 0 0 1.498 1.722 2.224 2.224 0 0 0 1.998-1.722 1.515 1.515 0 0 0-1.494-1.731v-.006zM43.983 22.14l4.55-2.254.38.768-2.073 3.74 3.151-1.56.37.748-4.55 2.253-.363-.725 2.16-3.831-3.262 1.609zM8.563 33.902a2.21 2.21 0 0 1 1.48-1.223 2.208 2.208 0 0 1 1.901.275c.572.379.961.939 1.169 1.68.242.864.12 1.624-.363 2.282l-.578-.615a1.65 1.65 0 0 0 .282-.68c.05-.263.038-.534-.036-.792a1.803 1.803 0 0 0-.81-1.107 1.714 1.714 0 0 0-2.351.659c-.22.422-.264.914-.12 1.368.063.231.17.449.312.641.117.168.263.313.43.43l.705-.198-.418-1.493.697-.196.665 2.374-1.692.475a2.924 2.924 0 0 1-1.4-1.838c-.206-.74-.164-1.421.127-2.042zM11.61 38.871l2.279-1.677.54.736-2.265 1.669c-.28.185-.47.48-.523.811-.043.315.063.645.315.99.253.343.535.542.846.595.332.049.67-.045.93-.257l2.266-1.668.542.737-2.282 1.677c-.483.354-.977.482-1.481.382-.504-.1-.972-.445-1.404-1.034-.432-.588-.62-1.14-.564-1.655.055-.516.322-.951.8-1.306zM13.775 44.647l4.413-2.58.92.673-1.115 4.988-.836-.61.226-.957-1.933-1.408-.846.504-.829-.61zm2.314-.328l1.513 1.105.56-2.356-2.073 1.25zM19.423 48.375l1.61-4.4 2.133.78c.483.177.823.446 1.019.808.197.355.224.78.072 1.156a1.28 1.28 0 0 1-.657.761 1.49 1.49 0 0 1-.96.112l.568 2.17-.994-.363-.475-2.037-.858-.314-.604 1.643-.854-.316zm1.707-2.008l1.18.432a.966.966 0 0 0 .67.024.673.673 0 0 0 .42-.425.657.657 0 0 0-.05-.586.974.974 0 0 0-.528-.411l-1.18-.432-.512 1.398zM24.477 50.102l2.427-4.5 1.13.099 1.644 4.836-1.032-.086-.305-.935-2.379-.198-.458.87-1.027-.086zm1.805-1.485l1.867.156-.748-2.303-1.119 2.147zM31.243 50.403l-.909-4.595.918-.18 3.24 2.666-.63-3.183.897-.178.909 4.594-.868.17-3.31-2.76.65 3.288zM35.525 45.395l-.325-.647 3.625-1.828.325.647-1.404.707 1.782 3.539-.815.411-1.774-3.538zM42.323 46.128l-3.09-3.522 2.678-2.353.483.544-1.991 1.75.796.907 1.952-1.714.483.544L41.683 44l.85.976 1.992-1.749.483.544zM46.245 42.316l-3.92-2.564 1.948-2.985.604.396-1.45 2.22 1.01.66 1.42-2.177.605.396-1.42 2.176 1.093.715 1.45-2.22.605.395zM49.096 37.448l-4.536-1.167.483-1.865c.2-.781.574-1.36 1.12-1.735a2.28 2.28 0 0 1 3.272.835c.298.59.347 1.275.147 2.056l-.486 1.876zm-.474-1.065l.254-.989c.136-.529.096-.988-.121-1.377a1.644 1.644 0 0 0-2.243-.589c-.373.229-.628.613-.766 1.152l-.256.997 3.132.806z"/>
        <ellipse cx="29.002" cy="29.482" stroke="#FFF" stroke-width=".5" rx="23.941" ry="23.954"/>
        <ellipse cx="29.002" cy="29.482" stroke="#FFF" stroke-width=".5" rx="13.672" ry="13.68"/>
        <path fill="#FFF" fill-rule="nonzero" d="M17.91 27.928l2.054-1.875h1.095v6.451h-1.252v-4.988l-1.168 1.105zM22.447 30.5a4.234 4.234 0 0 1-.171-1.21 4.37 4.37 0 0 1 .166-1.208c.108-.38.278-.74.503-1.065.229-.328.537-.592.895-.768.4-.195.84-.292 1.284-.283a2.587 2.587 0 0 1 1.61.5c.424.314.752.742.944 1.234a4.59 4.59 0 0 1 0 3.178c-.192.495-.52.927-.945 1.244a2.564 2.564 0 0 1-1.61.508 2.75 2.75 0 0 1-1.283-.29 2.384 2.384 0 0 1-.89-.774 3.763 3.763 0 0 1-.503-1.066zm1.088-1.21c0 .68.128 1.24.385 1.68.257.441.658.661 1.202.661.545 0 .945-.22 1.2-.66.256-.442.383-1.002.382-1.681a4.19 4.19 0 0 0-.144-1.159 1.779 1.779 0 0 0-.512-.836 1.45 1.45 0 0 0-1.856 0 1.768 1.768 0 0 0-.515.836 4.185 4.185 0 0 0-.145 1.159h.003zM29.065 30.5a4.234 4.234 0 0 1-.171-1.21 4.37 4.37 0 0 1 .166-1.208c.108-.38.278-.74.503-1.065.23-.328.537-.592.895-.768.4-.195.84-.292 1.284-.283a2.587 2.587 0 0 1 1.608.497c.425.313.753.741.945 1.233a4.59 4.59 0 0 1 0 3.179c-.192.495-.52.926-.945 1.244a2.564 2.564 0 0 1-1.61.508 2.75 2.75 0 0 1-1.283-.29 2.384 2.384 0 0 1-.89-.774 3.763 3.763 0 0 1-.502-1.063zm1.088-1.21c0 .68.128 1.24.385 1.68.257.441.658.661 1.203.661.544 0 .944-.22 1.2-.66.255-.442.382-1.001.382-1.68a4.19 4.19 0 0 0-.143-1.158 1.779 1.779 0 0 0-.513-.837 1.45 1.45 0 0 0-1.856 0 1.768 1.768 0 0 0-.514.837c-.103.377-.151.766-.145 1.157zM35.997 29.114a.912.912 0 0 1-.309-.725.929.929 0 0 1 .312-.725 1.288 1.288 0 0 1 1.607 0c.205.184.318.45.31.725a.925.925 0 0 1-.31.71 1.15 1.15 0 0 1-.81.285 1.166 1.166 0 0 1-.8-.27zm.208-.725a.617.617 0 0 0 .168.446c.11.116.265.179.424.174a.579.579 0 0 0 .432-.173.612.612 0 0 0 .169-.447.626.626 0 0 0-.17-.453.574.574 0 0 0-.43-.176.56.56 0 0 0-.425.176.63.63 0 0 0-.168.457v-.004zm.155 3.088l2.866-4.032h.454l-2.87 4.032h-.45zm2.054-.199a.91.91 0 0 1-.313-.725.929.929 0 0 1 .313-.725 1.291 1.291 0 0 1 1.602 0 .929.929 0 0 1 .313.725.91.91 0 0 1-.313.725 1.314 1.314 0 0 1-1.602 0zm.206-.725a.612.612 0 0 0 .168.445c.238.23.616.23.855 0a.612.612 0 0 0 .168-.445.636.636 0 0 0-.168-.456.604.604 0 0 0-.855 0 .636.636 0 0 0-.172.463l.004-.007z"/>
    </g>
</svg>
