<svg xmlns="http://www.w3.org/2000/svg" width="58" height="34" viewBox="0 0 58 34">
    <g fill="none" fill-rule="evenodd">
        <path fill="#323232" fill-rule="nonzero" d="M54.35 15.647c-.179-.038-.348-.074-.498-.113-1.707-.447-2.485-.692-3.06-1.81L48.61 9.276c-.7-1.362-2.51-2.471-4.034-2.471h-3.883V1.672C40.693.75 39.95 0 39.033 0L11.991.027c-.891 0-1.563.713-1.563 1.659v24.821c0 .921.745 1.671 1.66 1.671h2.813c.438 3.024 3.03 5.353 6.152 5.353 3.123 0 5.714-2.33 6.152-5.353H38.59c.059 0 .12-.004.18-.008.435 3.028 3.028 5.361 6.153 5.361 3.122 0 5.714-2.33 6.152-5.353h4.04c1.591 0 2.885-1.303 2.885-2.904v-4.929c0-3.927-2.196-4.39-3.65-4.698zm-9.427 9.347a2.271 2.271 0 0 1 2.26 2.276 2.271 2.271 0 0 1-2.26 2.277 2.27 2.27 0 0 1-2.26-2.277 2.27 2.27 0 0 1 2.26-2.276zm-4.23-9.701V9.231h2.967c1.14 0 2.548.861 3.07 1.876l1.94 3.956c.041.08.084.157.128.23h-8.105zM23.314 27.27a2.271 2.271 0 0 1-2.26 2.276 2.27 2.27 0 0 1-2.261-2.276 2.27 2.27 0 0 1 2.26-2.276 2.271 2.271 0 0 1 2.261 2.276z"/>
        <g transform="translate(0 4)">
            <rect width="15" height="4" fill="#CF0974" rx="2"/>
            <rect width="15.406" height="4" x="2.719" y="6" fill="#FFDF00" rx="2"/>
            <rect width="15.406" height="4" x="4.531" y="12" fill="#0FA0DA" rx="2"/>
        </g>
        <path fill="#323232" d="M9.875 0h14.5v24.469h-14.5z"/>
    </g>
</svg>
