<svg xmlns="http://www.w3.org/2000/svg" width="23" height="18" viewBox="0 0 23 18">
    <path fill="#989494" fill-rule="evenodd" d="M19.908 2.846A4.54 4.54 0 0 0 21.892.333a8.995 8.995 0 0 1-2.867 1.102A4.485 4.485 0 0 0 15.731 0c-2.492 0-4.512 2.035-4.512 4.544 0 .356.038.703.115 1.034-3.75-.19-7.075-1.996-9.303-4.747a4.556 4.556 0 0 0-.61 2.285c0 1.576.796 2.967 2.008 3.783a4.506 4.506 0 0 1-2.046-.568v.056a4.536 4.536 0 0 0 3.622 4.455c-.38.107-.777.16-1.19.16a4.44 4.44 0 0 1-.849-.08 4.519 4.519 0 0 0 4.217 3.155 9.017 9.017 0 0 1-5.606 1.944c-.364 0-.724-.02-1.077-.062A12.721 12.721 0 0 0 7.419 18c8.303 0 12.84-6.924 12.84-12.929 0-.197-.002-.394-.011-.587A9.176 9.176 0 0 0 22.5 2.13c-.81.361-1.68.606-2.592.715z"/>
</svg>
